<svg xmlns="http://www.w3.org/2000/svg" viewBox="0 0 64 64" role="img" aria-label="Society Management">
  <defs>
    <linearGradient id="sms-bg" x1="0" y1="0" x2="1" y2="1">
      <stop offset="0%" stop-color="#1e3a8a"/>
      <stop offset="100%" stop-color="#2563eb"/>
    </linearGradient>
  </defs>
  <rect width="64" height="64" rx="14" fill="url(#sms-bg)"/>
  <g fill="none" stroke="#ffffff" stroke-width="2.4" stroke-linecap="round" stroke-linejoin="round">
    <path d="M10 52h44"/>
    <path d="M14 12v40"/>
    <path d="M32 12v40"/>
    <path d="M50 24v28"/>
    <path d="M14 12h24"/>
    <path d="M38 20h12"/>
    <path d="M20 20h4M20 27h4M20 34h4"/>
    <path d="M27 20h4M27 27h4M27 34h4"/>
    <path d="M44 28h.1M44 35h.1M44 42h.1"/>
    <path d="M20 52v-7.2c0-1.3 1.1-2.4 2.4-2.4h5.2c1.3 0 2.4 1.1 2.4 2.4V52"/>
  </g>
</svg>
